#!OML:ASF H:\ManfredETheater\Project 1\Capture day 1\Session 1\subject.ASF
:FULLY-SPECIFIED
:DEGREES
167
root 0.968179 17.9233 -13.6583 -174.978 -8.92616 -179.781
lowerback 5.44237 -0.696485 -2.62928
upperback -2.85458 -1.07746 1.8888
thorax -5.94734 -0.403516 3.56499
lowerneck -13.7637 -3.09569 -3.75098
upperneck 9.37889 -3.82023 2.98537
head 5.19723 -1.79944 1.21654
rclavicle 5.2181e-015 -3.77691e-014
rhumerus -39.5225 3.07479 -86.002
rradius 61.5821
rwrist -0.293883
rhand -24.6517 1.25861
rfingers 7.12502
rthumb 1.84797 -28.7131
lclavicle 5.2181e-015 -3.77691e-014
lhumerus -40.3898 3.28739 87.4417
lradius 36.0286
lwrist -10.2151
lhand -23.9025 -2.72551
lfingers 7.12502
lthumb 2.57155 27.2387
rfemur -19.8701 1.07238 23.6981
rtibia 33.6776
rfoot -11.6991 -16.5768
rtoes -9.46744
lfemur -24.0032 -6.8653 -21.0456
ltibia 39.7203
lfoot -17.8391 -6.42198
ltoes 6.80065
168
root 0.961929 17.9187 -13.723 -174.925 -8.7395 -179.911
lowerback 5.2857 -0.64657 -2.84097
upperback -2.88906 -1.02701 1.83662
thorax -5.8961 -0.371922 3.62178
lowerneck -13.7143 -3.08787 -3.72491
upperneck 9.47469 -3.82597 3.03321
head 5.21976 -1.79878 1.22694
rclavicle 3.5657e-015 -7.95139e-016
rhumerus -39.3447 2.70937 -86.1663
rradius 60.9287
rwrist -0.282671
rhand -24.5014 1.08556
rfingers 7.12502
rthumb 1.99308 -28.8849
lclavicle 3.5657e-015 -7.95139e-016
lhumerus -40.4049 4.209 86.7781
lradius 35.01
lwrist -10.367
lhand -23.3332 -1.80845
lfingers 7.12502
lthumb 3.12131 28.1484
rfemur -19.6274 1.20185 23.6023
rtibia 33.6301
rfoot -12.0717 -16.73
rtoes -9.10085
lfemur -23.7283 -6.75174 -21.2475
ltibia 39.6466
lfoot -17.9105 -6.21873
ltoes 7.4447
169
root 0.955814 17.9162 -13.7851 -174.853 -8.56597 -180.056
lowerback 5.14004 -0.600269 -3.0518
upperback -2.93065 -0.98159 1.77595
thorax -5.85872 -0.342736 3.6703
lowerneck -13.6963 -3.08394 -3.69993
upperneck 9.57938 -3.83629 3.08352
head 5.25048 -1.79992 1.23747
rclavicle -2.09221e-014 3.97569e-015
rhumerus -39.168 2.29888 -86.3245
rradius 60.233
rwrist -0.26557
rhand -24.3756 0.923824
rfingers 7.12502
rthumb 2.11463 -29.0454
lclavicle -2.09221e-014 3.97569e-015
lhumerus -40.4001 5.17114 86.0779
lradius 33.9735
lwrist -10.5742
lhand -22.7769 -0.903383
lfingers 7.12502
lthumb 3.65857 29.045
rfemur -19.4295 1.32293 23.4855
rtibia 33.6075
rfoot -12.3968 -16.8666
rtoes -8.78632
lfemur -23.484 -6.63993 -21.4511
ltibia 39.57
lfoot -17.9848 -6.09107
ltoes 7.89133
170
root 0.949719 17.9159 -13.8445 -174.768 -8.41145 -180.195
lowerback 5.00417 -0.559666 -3.23873
upperback -2.975 -0.942092 1.71267
thorax -5.82993 -0.317392 3.70359
lowerneck -13.7179 -3.08462 -3.68484
upperneck 9.69003 -3.8515 3.14682
head 5.29022 -1.80248 1.25271
rclavicle -1.20886e-014 -1.59028e-015
rhumerus -38.9823 1.85249 -86.4756
rradius 59.4864
rwrist -0.251875
rhand -24.2701 0.771834
rfingers 7.12502
rthumb 2.21654 -29.1964
lclavicle -1.20886e-014 -1.59028e-015
lhumerus -40.3664 6.18989 85.3353
lradius 32.9138
lwrist -10.8826
lhand -22.2454 -0.0213471
lfingers 7.12502
lthumb 4.17184 29.9175
rfemur -19.2727 1.42867 23.3672
rtibia 33.6033
rfoot -12.673 -16.9755
rtoes -8.51492
lfemur -23.274 -6.53862 -21.6337
ltibia 39.4992
lfoot -18.0692 -6.03015
ltoes 8.1449
171
root 0.943372 17.9173 -13.9014 -174.671 -8.26758 -180.313
lowerback 4.87167 -0.522764 -3.38705
upperback -3.02049 -0.904558 1.65221
thorax -5.80467 -0.294585 3.71845
lowerneck -13.7546 -3.08808 -3.6735
upperneck 9.78703 -3.86949 3.2143
head 5.32848 -1.80602 1.26952
rclavicle -3.84524e-015 -2.10712e-014
rhumerus -38.7895 1.38337 -86.6188
rradius 58.687
rwrist -0.249188
rhand -24.1827 0.631007
rfingers 7.12502
rthumb 2.30089 -29.3363
lclavicle -3.84524e-015 -2.10712e-014
lhumerus -40.3173 7.26931 84.5502
lradius 31.846
lwrist -11.322
lhand -21.7422 0.839145
lfingers 7.12502
lthumb 4.65769 30.7679
rfemur -19.1512 1.51825 23.262
rtibia 33.6101
rfoot -12.9028 -17.0418
rtoes -8.29449
lfemur -23.1 -6.4464 -21.781
ltibia 39.4403
lfoot -18.1522 -5.99642
ltoes 8.27116
172
root 0.936481 17.9197 -13.956 -174.568 -8.12846 -180.393
lowerback 4.73928 -0.489087 -3.47957
upperback -3.06542 -0.866913 1.60001
thorax -5.77942 -0.273986 3.71055
lowerneck -13.8031 -3.09198 -3.67656
upperneck 9.86888 -3.88669 3.2978
head 5.36456 -1.80842 1.29368
rclavicle 2.5022e-014 1.19271e-015
rhumerus -38.5898 0.908176 -86.7561
rradius 57.8337
rwrist -0.271457
rhand -24.1141 0.483842
rfingers 7.12502
rthumb 2.36717 -29.4828
lclavicle 2.5022e-014 1.19271e-015
lhumerus -40.2642 8.42069 83.7181
lradius 30.7812
lwrist -11.9205
lhand -21.2633 1.65917
lfingers 7.12502
lthumb 5.12015 31.5773
rfemur -19.056 1.59311 23.1871
rtibia 33.6193
rfoot -13.0927 -17.0615
rtoes -8.11546
lfemur -22.9594 -6.36053 -21.8795
ltibia 39.3982
lfoot -18.2421 -5.98582
ltoes 8.31358
173
root 0.928901 17.9227 -14.0087 -174.462 -7.9888 -180.436
lowerback 4.60489 -0.457896 -3.51992
upperback -3.10976 -0.828504 1.55631
thorax -5.75283 -0.255133 3.68212
lowerneck -13.8525 -3.0953 -3.69014
upperneck 9.9291 -3.90212 3.39332
head 5.39446 -1.80946 1.32357
rclavicle -7.29912e-015 1.03368e-014
rhumerus -38.3876 0.434979 -86.888
rradius 56.9272
rwrist -0.320364
rhand -24.06 0.32715
rfingers 7.12502
rthumb 2.41945 -29.6389
lclavicle -7.29912e-015 1.03368e-014
lhumerus -40.2241 9.63759 82.8399
lradius 29.7343
lwrist -12.6788
lhand -20.8069 2.43869
lfingers 7.12502
lthumb 5.56081 32.3457
rfemur -18.9787 1.6561 23.1404
rtibia 33.6242
rfoot -13.2522 -17.0364
rtoes -7.97362
lfemur -22.8471 -6.27584 -21.9365
ltibia 39.375
lfoot -18.3351 -5.98406
ltoes 8.33864
174
root 0.920574 17.9257 -14.0598 -174.357 -7.84464 -180.448
lowerback 4.46522 -0.427961 -3.51632
upperback -3.15038 -0.78814 1.52176
thorax -5.71968 -0.237202 3.63827
lowerneck -13.8936 -3.0954 -3.71535
upperneck 9.96473 -3.91202 3.49972
head 5.41556 -1.80755 1.35949
rclavicle 2.03754e-015 5.56597e-015
rhumerus -38.1816 -0.0239032 -87.0123
rradius 55.9675
rwrist -0.397865
rhand -24.0175 0.163714
rfingers 7.12502
rthumb 2.46047 -29.8018
lclavicle 2.03754e-015 5.56597e-015
lhumerus -40.2089 10.9002 81.9274
lradius 28.7259
lwrist -13.5851
lhand -20.3588 3.17978
lfingers 7.12502
lthumb 5.9934 33.075
rfemur -18.9093 1.70851 23.1176
rtibia 33.6205
rfoot -13.3928 -16.9703
rtoes -7.86063
lfemur -22.7537 -6.18881 -21.962
ltibia 39.3698
lfoot -18.4336 -5.97228
ltoes 8.37004
175
root 0.911515 17.9282 -14.1093 -174.255 -7.69539 -180.436
lowerback 4.32214 -0.400638 -3.47877
upperback -3.18621 -0.748458 1.49585
thorax -5.67952 -0.221071 3.5844
lowerneck -13.927 -3.09076 -3.74548
upperneck 9.97586 -3.91416 3.60696
head 5.42754 -1.80205 1.39739
rclavicle 7.70291e-015 -7.95139e-016
rhumerus -37.9724 -0.453822 -87.1304
rradius 54.9644
rwrist -0.505549
rhand -23.9754 -0.0187104
rfingers 7.12502
rthumb 2.50116 -29.9838
lclavicle 7.70291e-015 -7.95139e-016
lhumerus -40.2279 12.1864 80.9938
lradius 27.7731
lwrist -14.5981
lhand -19.9177 3.88988
lfingers 7.12502
lthumb 6.41929 33.7726
rfemur -18.842 1.75512 23.1128
rtibia 33.6074
rfoot -13.5233 -16.8773
rtoes -7.77784
lfemur -22.6723 -6.10013 -21.9671
ltibia 39.3786
lfoot -18.542 -5.94673
ltoes 8.41363
176
root 0.901862 17.9301 -14.1575 -174.158 -7.54178 -180.413
lowerback 4.17985 -0.375702 -3.42241
upperback -3.21738 -0.71048 1.47592
thorax -5.6347 -0.206571 3.52644
lowerneck -13.9542 -3.08147 -3.77937
upperneck 9.96967 -3.90864 3.71219
head 5.4328 -1.79317 1.43612
rclavicle -1.9015e-014 1.19271e-015
rhumerus -37.7622 -0.847588 -87.2425
rradius 53.9236
rwrist -0.63459
rhand -23.9188 -0.225453
rfingers 7.12502
rthumb 2.55579 -30.1899
lclavicle -1.9015e-014 1.19271e-015
lhumerus -40.2928 13.4443 80.0667
lradius 26.9034
lwrist -15.647
lhand -19.4748 4.5743
lfingers 7.12502
lthumb 6.84687 34.4436
rfemur -18.7706 1.79849 23.1147
rtibia 33.5869
rfoot -13.6568 -16.7698
rtoes -7.71708
lfemur -22.5936 -6.00905 -21.9669
ltibia 39.3943
lfoot -18.6584 -5.90321
ltoes 8.4826
177
root 0.891807 17.9312 -14.2044 -174.069 -7.39127 -180.393
lowerback 4.04511 -0.354313 -3.36432
upperback -3.24383 -0.677169 1.45907
thorax -5.58873 -0.19439 3.47134
lowerneck -13.9792 -3.06627 -3.8074
upperneck 9.95338 -3.89405 3.80341
head 5.43377 -1.78063 1.4704
rclavicle 8.99501e-015 -1.23246e-014
rhumerus -37.5539 -1.19675 -87.3471
rradius 52.8598
rwrist -0.780741
rhand -23.8406 -0.465141
rfingers 7.12502
rthumb 2.6313 -30.4287
lclavicle 8.99501e-015 -1.23246e-014
lhumerus -40.3987 14.631 79.1741
lradius 26.1264
lwrist -16.6752
lhand -19.0225 5.25133
lfingers 7.12502
lthumb 7.28346 35.106
rfemur -18.6909 1.8346 23.11
rtibia 33.5625
rfoot -13.8003 -16.6588
rtoes -7.68441
lfemur -22.5094 -5.91501 -21.9777
ltibia 39.4094
lfoot -18.7808 -5.85161
ltoes 8.5744
